<?xml version="1.0" encoding="utf-8"?>
<!-- Generator: Adobe Illustrator 26.2.1, SVG Export Plug-In . SVG Version: 6.00 Build 0)  -->
<svg version="1.1" id="Layer_1" xmlns="http://www.w3.org/2000/svg" xmlns:xlink="http://www.w3.org/1999/xlink" x="0px" y="0px"
	 viewBox="0 0 477.1 157.6" style="enable-background:new 0 0 477.1 157.6;" xml:space="preserve">
<style type="text/css">
	.st0{fill:#0AFFAF;}
	.st1{fill:#8F53F7;}
</style>
<path class="st0" d="M194.6,41c7.3,3.3,10.2,6.9,10.2,12.8c0,1.9-0.3,5.6-2.5,8.8c-2.5,3.6-6.7,5.5-12.7,5.5
	c-4.9,0-8.8-1.3-11.5-3.8c-1.1-1.1-2.9-3.3-3.7-6.9c-0.1-0.3,0.1-0.6,0.4-0.6l10.1-2.1c0.3-0.1,0.6,0.1,0.6,0.4c1,3.1,3.5,3.3,4,3.3
	c2.5,0,4.1-2.1,4.1-4.1c0-2.2-1.7-2.9-7.8-5.5l-0.5-0.2c-2.9-1.2-10.7-4.4-10.7-12.8c0-8.9,7.9-13.7,15.2-13.7c1.4,0,4,0.1,6.7,1.3
	c1.8,0.8,5.8,3,6.7,7.7c0,0.3-0.1,0.6-0.4,0.6l-9.3,2.3c-0.3,0.1-0.6-0.1-0.6-0.3c-0.4-1.1-1.3-2-3.3-2c-1.8,0-3.6,1.2-3.6,3.3
	C185.8,37,187,37.5,194.6,41z M230.8,21.7c12.6,0,22.8,10.5,22.8,23.3c0,12.9-10.2,23.3-22.8,23.3c-12.6,0-22.7-10.5-22.7-23.3
	C208.1,32.2,218.2,21.7,230.8,21.7z M230.8,57.7c6.9,0,12.5-5.7,12.5-12.8c0-7-5.6-12.7-12.5-12.7c-6.9,0-12.4,5.7-12.4,12.7
	C218.4,52,223.9,57.7,230.8,57.7z M284.4,57c0.3,0,0.6,0.3,0.6,0.6l-1,9.1c0,0.3-0.3,0.4-0.5,0.4h-24c-0.3,0-0.5-0.3-0.5-0.5V23.4
	c0-0.3,0.2-0.6,0.5-0.6h10.2c0.3,0,0.5,0.3,0.5,0.6v33.1c0,0.3,0.3,0.5,0.6,0.5H284.4z M199.8,109.8l6.4,14.7
	c0.1,0.4-0.1,0.8-0.5,0.8h-11c-0.3,0-0.4-0.1-0.5-0.3l-5.8-13.3c-0.1-0.2-0.3-0.3-0.4-0.3h-1.8c-0.3,0-0.6,0.2-0.6,0.5v12.7
	c0,0.3-0.2,0.6-0.5,0.6h-10.2c-0.3,0-0.5-0.3-0.5-0.6V81.3c0-0.3,0.2-0.5,0.5-0.5h13.6c7.9,0,11,1.2,13.4,3.2
	c3.2,2.7,5.1,7,5.1,11.7c0,4.6-1.8,9.3-4.6,11.7c-0.8,0.7-1.6,1.3-2.3,1.7C199.8,109.3,199.8,109.6,199.8,109.8z M193.6,100.5
	c2.1-1,2.5-3,2.5-4.5c0-2.2-0.9-3.6-2.7-4.4c-1.5-0.6-3.3-0.6-4.4-0.6h-2.9c-0.3,0-0.6,0.3-0.6,0.6v9c0,0.3,0.3,0.6,0.6,0.6h3.3
	C190.5,101.1,192.2,101.1,193.6,100.5z M238.1,115.1c0.3,0,0.6,0.3,0.6,0.6l-0.9,9.1c-0.1,0.3-0.3,0.5-0.6,0.5h-24.1
	c-0.3,0-0.6-0.3-0.6-0.6V81.5c0-0.3,0.2-0.5,0.5-0.5h24.2c0.3,0,0.5,0.2,0.6,0.5l0.9,9c0,0.4-0.3,0.6-0.6,0.6h-13.8
	c-0.3,0-0.6,0.3-0.6,0.6v5.4c0,0.3,0.3,0.6,0.6,0.6h10c0.3,0,0.6,0.3,0.6,0.6v9c0,0.3-0.3,0.6-0.6,0.6h-10c-0.3,0-0.6,0.3-0.6,0.6
	v6.1c0,0.3,0.3,0.6,0.6,0.6H238.1z M282.4,116.6c0.3,0.2,0.3,0.6,0.1,0.8c-4.3,5.7-11,9-18,9c-12.6,0-22.7-10.4-22.7-23.3
	c0-12.8,10.2-23.3,22.7-23.3c3.7,0,7.2,0.9,10.5,2.6c2.8,1.5,5.3,3.6,7.3,6.1c0.2,0.3,0.1,0.6-0.1,0.8l-7.6,5.5
	c-0.2,0.2-0.5,0.1-0.7-0.1c-2.4-2.8-5.8-4.3-9.4-4.3c-6.9,0-12.4,5.7-12.4,12.7c0,7,5.6,12.8,12.4,12.8c3.7,0,7.2-1.7,9.6-4.6
	c0.1-0.3,0.5-0.3,0.7-0.1L282.4,116.6z M307.2,79.7c12.6,0,22.8,10.5,22.8,23.3c0,12.9-10.2,23.3-22.8,23.3
	c-12.6,0-22.7-10.5-22.7-23.3C284.5,90.2,294.6,79.7,307.2,79.7z M307.2,115.7c6.9,0,12.5-5.7,12.5-12.8c0-7-5.6-12.7-12.5-12.7
	c-6.9,0-12.4,5.7-12.4,12.7C294.8,110,300.3,115.7,307.2,115.7z M370.5,80.8c0.4,0,0.6,0.4,0.5,0.7l-14.6,43.4
	c-0.1,0.3-0.3,0.4-0.5,0.4h-10.5c-0.3,0-0.4-0.1-0.5-0.4l-14.7-43.4c-0.1-0.3,0.1-0.7,0.5-0.7H343c0.3,0,0.4,0.2,0.5,0.4l6.6,25.4
	c0.1,0.5,0.9,0.5,1,0l6.7-25.4c0-0.3,0.3-0.4,0.5-0.4H370.5z M400.6,115.1c0.3,0,0.6,0.3,0.6,0.6l-0.9,9.1c-0.1,0.3-0.3,0.5-0.6,0.5
	h-24.1c-0.3,0-0.6-0.3-0.6-0.6V81.5c0-0.3,0.2-0.5,0.5-0.5h24.2c0.3,0,0.5,0.2,0.6,0.5l0.9,9c0,0.4-0.3,0.6-0.6,0.6h-13.8
	c-0.3,0-0.6,0.3-0.6,0.6v5.4c0,0.3,0.3,0.6,0.6,0.6h10c0.3,0,0.6,0.3,0.6,0.6v9c0,0.3-0.3,0.6-0.6,0.6h-10c-0.3,0-0.6,0.3-0.6,0.6
	v6.1c0,0.3,0.3,0.6,0.6,0.6H400.6z M432.3,109.8l6.4,14.7c0.1,0.4-0.1,0.8-0.5,0.8h-11c-0.3,0-0.4-0.1-0.5-0.3l-5.8-13.3
	c-0.1-0.2-0.3-0.3-0.4-0.3h-1.8c-0.3,0-0.6,0.2-0.6,0.5v12.7c0,0.3-0.2,0.6-0.5,0.6h-10.2c-0.3,0-0.5-0.3-0.5-0.6V81.3
	c0-0.3,0.2-0.5,0.5-0.5H421c7.9,0,11,1.2,13.4,3.2c3.2,2.7,5.1,7,5.1,11.7c0,4.6-1.8,9.3-4.6,11.7c-0.8,0.7-1.6,1.3-2.3,1.7
	C432.3,109.3,432.3,109.6,432.3,109.8z M426.1,100.5c2.1-1,2.5-3,2.5-4.5c0-2.2-0.9-3.6-2.7-4.4c-1.5-0.6-3.3-0.6-4.4-0.6h-2.9
	c-0.3,0-0.6,0.3-0.6,0.6v9c0,0.3,0.3,0.6,0.6,0.6h3.3C422.9,101.1,424.7,101.1,426.1,100.5z M476.5,80.9c0.4,0,0.6,0.4,0.5,0.8
	l-12.4,25.6c-0.1,0.1-0.1,0.2-0.1,0.3v17.1c0,0.3-0.3,0.5-0.6,0.5h-10.2c-0.3,0-0.5-0.3-0.5-0.5v-17.1c0-0.1,0-0.2-0.1-0.3
	l-12.5-25.6c-0.1-0.4,0.1-0.8,0.5-0.8h11c0.2,0,0.4,0.1,0.5,0.3l5.6,13.4c0.2,0.4,0.8,0.4,1,0l5.7-13.4c0.1-0.2,0.3-0.3,0.5-0.3
	H476.5z"/>
<path class="st1" d="M77.3,62.4c-9.9,0-19.3,0-29,0c-2.6,0-3.3-0.7-3.3-3.5c0-4.7,0-9.4,0-14.2c0-9.2,0-18.4,0-27.6
	c0-3.5,0.9-4,4-2.3c13.8,7.3,27.5,14.6,41.3,21.9c1.3,0.7,2.4,0.7,3.7,0c13.5-7.2,27.1-14.4,40.6-21.6c1.7-0.9,4.2-2.6,4.5,0.6
	c0.1,29.3,0,58.7,0.1,88c0,2.1-0.6,3.5-2.3,4.8c-14.4,11.4-28.7,22.8-42.9,34.3c-1.4,1.1-2.2,1.1-3.7,0
	c-14.4-11.6-28.9-23.2-43.5-34.7c-1.3-1-2-2.1-1.9-3.8c0.1-3.3,0.1-6.6,0-9.8c-0.1-2.2,0.8-3.1,3-2.9c1,0.1,2.1,0,3.3,0
	c0,6.7,3.4,12,10.4,12.3c3.7,0.1,7.3-0.2,11-0.3c0.8,0,1.6,0.2,2.3,0.3c0.7,5.6,1.7,6.4,7.2,6.4c6.9,0,13.8,0,20.6,0
	c4.8,0,6.7-3.1,4.9-7.5c-2.6-6.4-5-12.8-7.8-19c-1.8-4-1.1-6.9,2-9.8c5.2-5,5.8-12.9,1.6-18.6c-3.5-4.7-8.3-6.8-14.1-5.8
	C82.6,50.7,78.4,55.8,77.3,62.4L77.3,62.4z"/>
<path class="st1" d="M37.6,100.8c0,0.6,0.2,1,0.1,1.4c-0.9,5.4,1.7,8.8,5.8,12c14.9,11.5,29.4,23.3,44.1,35c3.5,2.8,5.3,2.8,8.7,0
	c15.7-12.5,31.4-25.1,47.1-37.5c2-1.6,2.9-3.4,2.9-6c0-31.7,0-63.3,0-95c0-5.5-3.7-7.8-8.6-5.2C123.6,13,109.6,20.5,95.5,28
	c-2.5,1.3-4.6,1.3-7,0C74.5,20.4,60.3,13,46.2,5.5c-4.5-2.4-8.5,0-8.5,5.1c0,14,0,27.9,0,42c-2-1.1-3.8-1.9-5.4-2.9
	c-0.5-0.3-0.8-1.1-0.8-1.7c0-12.8-0.2-25.6,0-38.4c0.1-8.8,9.2-14,17.1-9.8c13.5,7.1,27,14.2,40.4,21.5c2.1,1.2,3.7,1.2,5.9,0.1
	c13.3-7.2,26.7-14.2,40-21.3c8.6-4.6,17.6,0.6,17.6,10.4c0,32,0,64,0,96c0,4.1-1.5,7.4-4.8,10c-16.1,12.9-32.2,25.7-48.4,38.6
	c-4.5,3.6-10.1,3.6-14.6,0.1c-16.3-13-32.6-26-48.9-39c-3.4-2.7-4.6-6.4-4.4-10.6c0-0.6,0.5-1.3,1-1.6
	C34.1,102.7,35.7,101.9,37.6,100.8L37.6,100.8z"/>
<path class="st0" d="M86.5,83.5c0,0,0,6.2,0,9.4c0,1.9-0.8,2.8-2.8,2.7c-2.2-0.1-4.3-0.1-6.5,0c-2,0.1-2.7-0.9-2.7-2.8
	c0.1-2.3,0.2-4.6,0-7c-0.1-0.8-0.7-2.2-1.3-2.2c-1.7-0.2-1.5,1.2-1.5,2.3c0,2.3-0.1,4.6,0,7c0.1,2-0.8,2.7-2.8,2.7
	c-2.2-0.1-4.3-0.1-6.5,0c-1.8,0-2.6-0.8-2.6-2.6c0.1-2.4,0-4.8,0.1-7.2c0-1.7-0.8-2.5-2.5-2.5c-5.1,0-10.2,0-15.4-0.1
	c-1.9-0.1-2.4,1.1-3,2.5C31,103.1,4.9,101,0,81.7C-5.5,57.9,27.2,45.4,38.6,67c1.6,3.3,3.5,4.2,6.9,4.1C58.2,71,71,71.2,83.7,71.2
	c2.4,0,3,1.1,3,3.2c0,3-0.1,9-0.1,9L86.5,83.5L86.5,83.5z M29,76.7c0-4.9-3.9-8.7-8.8-8.7c-11.4,0.4-11.4,17,0,17.4
	C25.1,85.5,29,81.6,29,76.7L29,76.7z"/>
</svg>
